<mxfile host="app.diagrams.net" modified="2021-03-14T15:21:07.211Z" agent="5.0 (Macintosh; Intel Mac OS X 10_14_6) AppleWebKit/537.36 (KHTML, like Gecko) Chrome/88.0.4324.192 Safari/537.36" etag="YBRAQ0pPrnig_SrjzRsS" version="14.3.1" type="github">
  <diagram id="cj0Z7pNimVpw6jqo-E7z" name="Page-1">
    <mxGraphModel dx="1402" dy="654" grid="1" gridSize="10" guides="1" tooltips="1" connect="1" arrows="1" fold="1" page="1" pageScale="1" pageWidth="850" pageHeight="1100" math="0" shadow="0">
      <root>
        <mxCell id="0" />
        <mxCell id="1" parent="0" />
        <mxCell id="IR-eqQ5YHkqLA4fKnOQH-5" value="" style="aspect=fixed;pointerEvents=1;shadow=0;dashed=0;html=1;strokeColor=none;labelPosition=center;verticalLabelPosition=bottom;verticalAlign=top;align=center;fillColor=#00188D;shape=mxgraph.azure.script_file" parent="1" vertex="1">
          <mxGeometry x="480" y="250" width="47" height="50" as="geometry" />
        </mxCell>
        <mxCell id="IR-eqQ5YHkqLA4fKnOQH-7" value="" style="aspect=fixed;pointerEvents=1;shadow=0;dashed=0;html=1;strokeColor=none;labelPosition=center;verticalLabelPosition=bottom;verticalAlign=top;align=center;fillColor=#00188D;shape=mxgraph.mscae.enterprise.application_server" parent="1" vertex="1">
          <mxGeometry x="560" y="190" width="124.7" height="145" as="geometry" />
        </mxCell>
        <mxCell id="IR-eqQ5YHkqLA4fKnOQH-8" value="" style="aspect=fixed;pointerEvents=1;shadow=0;dashed=0;html=1;strokeColor=none;labelPosition=center;verticalLabelPosition=bottom;verticalAlign=top;align=center;fillColor=#00188D;shape=mxgraph.azure.computer" parent="1" vertex="1">
          <mxGeometry x="8.059999999999999" y="110" width="375" height="337.5" as="geometry" />
        </mxCell>
        <mxCell id="yCAJ61VOqBWOnpiDdDVH-1" value="" style="aspect=fixed;pointerEvents=1;shadow=0;dashed=0;html=1;strokeColor=none;labelPosition=center;verticalLabelPosition=bottom;verticalAlign=top;align=center;fillColor=#00188D;shape=mxgraph.mscae.enterprise.application" parent="1" vertex="1">
          <mxGeometry x="70.56" y="150" width="250" height="170" as="geometry" />
        </mxCell>
        <mxCell id="IR-eqQ5YHkqLA4fKnOQH-9" value="HTTP Request" style="html=1;shadow=0;dashed=0;align=center;verticalAlign=middle;shape=mxgraph.arrows2.arrow;dy=0.6;dx=40;notch=0;" parent="1" vertex="1">
          <mxGeometry x="270" y="170" width="195" height="70" as="geometry" />
        </mxCell>
        <mxCell id="IR-eqQ5YHkqLA4fKnOQH-10" value="HTTP Response" style="html=1;shadow=0;dashed=0;align=center;verticalAlign=middle;shape=mxgraph.arrows2.arrow;dy=0.6;dx=40;flipH=1;notch=0;" parent="1" vertex="1">
          <mxGeometry x="265" y="240" width="200" height="70" as="geometry" />
        </mxCell>
      </root>
    </mxGraphModel>
  </diagram>
</mxfile>
